name mfd
datacolumns  50
datarows  9
range   1.25500000 1.29500000
cursor 1.0 1.0 0.0
keys m_key
wrap
enforce_loops no
enforce_constraints no
calc_derivatives -1.000000
event_color 0.000000 0.000000 0.000000
endheader

            time        pelvis_tz        pelvis_tx        pelvis_ty      pelvis_tilt      pelvis_list       pelvis_rot       lumbar_ext   lumbar_latbend       lumbar_rot         neck_ext     neck_latbend         neck_rot        arm_add_r       arm_flex_r        arm_rot_r     elbow_flex_r        pro_sup_r     wrist_flex_r        arm_add_l       arm_flex_l        arm_rot_l     elbow_flex_l        pro_sup_l     wrist_flex_l       hip_flex_r        hip_add_r        hip_rot_r        knee_tz_r        knee_tx_r        knee_ty_r      knee_flex_r       knee_add_r       knee_rot_r          pf_tz_r          pf_tx_r          pf_ty_r        pf_flex_r         pf_rot_r        pf_tilt_r       hip_flex_l        hip_add_l        hip_rot_l      knee_flex_l     ankle_flex_l     subt_angle_l      mtp_angle_l     ankle_flex_r     subt_angle_r      mtp_angle_r 
      1.25500000      -0.23489500       0.02456600       0.86792700      -8.81229500       2.38935200       4.11065000      -4.78440500      -2.10870400     -10.53990400      -0.00000000       0.00000000      -0.00000000     -13.42634600       5.12475300     -37.50561200      18.98592300      70.00000000      -0.00000000     -24.43979300      29.17135500     -12.75144200      55.73820900      70.00000000      -0.00000000      32.32909700      -1.89062600     -10.42100600      -0.00080200       0.00071700       0.00035500      -5.22851100      -1.34171900      -2.40897000       0.00582500       0.04782200       0.01382400       9.39265400       0.15337800      -6.16697600      -9.40309900      -2.54931200       5.88364400       5.60702600      20.23944500      -0.00065100      -0.00000000       0.46370000      -0.00100000      -0.00000000 
      1.26000000      -0.23466400       0.03179200       0.86648800      -8.76652900       2.35764200       4.27909500      -4.79979500      -1.98550400     -10.69901000       0.00000000       0.00000000       0.00000000     -13.44922300       5.07593400     -37.57993800      18.95678600      70.00000000       0.00000000     -24.43464700      29.24854300     -12.83246200      55.97773500      70.00000000       0.00000000      32.38433900      -1.88070000     -10.21525000      -0.00066100       0.00131500       0.00054900      -4.74162700      -1.01727600      -2.40675800       0.00540400       0.04859800       0.01219200       9.40199500       0.16791000      -6.17082700      -9.69734500      -2.37563400       5.80450300       6.08305800      20.41786400      -0.00070700       0.00000000       0.43731900      -0.00100000       0.00000000 
      1.26500000      -0.23440300       0.03908500       0.86511800      -8.71252600       2.31210600       4.43722200      -4.81531200      -1.84501800     -10.84469500       0.00000000       0.00000000       0.00000000     -13.47188400       5.03053500     -37.65707000      18.91703600      70.00000000       0.00000000     -24.40387000      29.28833200     -12.90094800      56.19865300      70.00000000       0.00000000      32.42709600      -1.85523700      -9.96684500      -0.00047500       0.00185700       0.00074600      -4.16179000      -0.72504900      -2.41363300       0.00523300       0.04873200       0.01179100       9.34555000       0.17762500      -6.17289000      -9.98305000      -2.18516600       5.71394100       6.59350500      20.55083300      -0.00073500       0.00000000       0.42087100      -0.00100000       0.00000000 
      1.27000000      -0.23411100       0.04644500       0.86382600      -8.65125100       2.25253500       4.58416800      -4.82984300      -1.68748500     -10.97576500       0.00000000       0.00000000       0.00000000     -13.49421200       4.98846900     -37.73707200      18.86634700      70.00000000       0.00000000     -24.34736500      29.29072600     -12.95520200      56.39917800      70.00000000       0.00000000      32.45758500      -1.81326700      -9.67959800      -0.00029900       0.00249500       0.00099900      -3.49991500      -0.43171100      -2.43895000       0.00513200       0.04877100       0.01157400       9.28017700       0.18760500      -6.17443400     -10.25864700      -1.97853600       5.61071100       7.13807300      20.63124600      -0.00073500       0.00000000       0.40868400      -0.00100000       0.00000000 
      1.27500000      -0.23378600       0.05386800       0.86261800      -8.58363700       2.17877000       4.71905500      -4.84244600      -1.51326600     -11.09102900       0.00000000       0.00000000       0.00000000     -13.51606400       4.94975400     -37.81999700      18.80444400      70.00000000       0.00000000     -24.26522500      29.25598500     -12.99369400      56.57737700      70.00000000       0.00000000      32.47615400      -1.75381100      -9.35735700      -0.00013500       0.00313500       0.00122900      -2.76677400      -0.12721700      -2.48983900       0.00505000       0.04881600       0.01130500       9.21927200       0.19861300      -6.17468300     -10.52238500      -1.75631000       5.49429300       7.71670600      20.65189600      -0.00070600       0.00000000       0.39588200      -0.00100000       0.00000000 
      1.28000000      -0.23342700       0.06135200       0.86150300      -8.51056000       2.09069800       4.84099000      -4.85237800      -1.32283600     -11.18930900       0.00000000       0.00000000       0.00000000     -13.53726100       4.91452000     -37.90587400      18.73113300      70.00000000       0.00000000     -24.15774600      29.18462100     -13.01509500      56.73122500      70.00000000       0.00000000      32.48325100      -1.67590000      -9.00392800      -0.00002400       0.00365900       0.00138700      -1.97278500       0.11514100      -2.55707800       0.00497100       0.04888900       0.01089600       9.17456700       0.20868400      -6.17201400     -10.77233200      -1.51894200       5.36501000       8.32963700      20.60560400      -0.00064900       0.00000000       0.37860800      -0.00100000       0.00000000 
      1.28500000      -0.23303200       0.06889500       0.86048800      -8.43282000       1.98826100       4.94907100      -4.85912100      -1.11678100     -11.26945600       0.00000000       0.00000000       0.00000000     -13.55759800       4.88300700     -37.99467800      18.64631700      70.00000000       0.00000000     -24.02543400      29.07739100     -13.01830700      56.85864600      70.00000000       0.00000000      32.47938800      -1.57858700      -8.62302200       0.00003500       0.00401800       0.00147400      -1.12785300       0.30130500      -2.63350800       0.00489100       0.04898900       0.01033200       9.15510500       0.21568400      -6.16426000     -11.00637800      -1.26674600       5.22410100       8.97741900      20.48535700      -0.00056700       0.00000000       0.35420200      -0.00100000       0.00000000 
      1.29000000      -0.23260000       0.07649000       0.85958100      -8.35112200       1.87145700       5.04240100      -4.86239800      -0.89578900     -11.33036500       0.00000000       0.00000000       0.00000000     -13.57684000       4.85556000     -38.08631300      18.55002500      70.00000000       0.00000000     -23.86901400      28.93528700     -13.00248900      56.95757600      70.00000000       0.00000000      32.46510100      -1.46097500      -8.21823400       0.00004400       0.00424100       0.00151400      -0.24125000       0.41434800      -2.71094400       0.00481500       0.04910100       0.00965000       9.16636000       0.21745700      -6.14941100     -11.22225500      -0.99986700       5.07375000       9.66094300      20.28446000      -0.00046300       0.00000000       0.32130200      -0.00100000       0.00000000 
      1.29500000      -0.23213000       0.08413300       0.85878700      -8.26606400       1.74034800       5.12010600      -4.86218500      -0.66065600     -11.37099800       0.00000000       0.00000000       0.00000000     -13.59473400       4.83262400     -38.18058700      18.44243600      70.00000000       0.00000000     -23.68943000      28.75952300     -12.96707500      57.02601000      70.00000000       0.00000000      32.44089100      -1.32224000      -7.79305000       0.00002000       0.00438900       0.00153400       0.67844600       0.48291700      -2.78956700       0.00475000       0.04921100       0.00890100       9.20863200       0.21321500      -6.12588400     -11.41754400      -0.71827000       4.91707800      10.38143900      19.99669200      -0.00034100       0.00000000       0.27989200      -0.00100000       0.00000000 
